<svg width="244" height="245" viewBox="0 0 244 245" fill="none" xmlns="http://www.w3.org/2000/svg">
<path fill-rule="evenodd" clip-rule="evenodd" d="M23 4H215C225.493 4 234 12.5066 234 23V89H238V23C238 10.2975 227.703 0 215 0H23C10.2975 0 0 10.2975 0 23V215C0 227.703 10.2975 238 23 238H86V234H23C12.5066 234 4 225.493 4 215V23C4 12.5066 12.5066 4 23 4Z" fill="#FF0000"/>
<path d="M123.962 116.556C123.962 117.711 123.829 118.828 123.562 119.907C123.296 120.974 122.909 121.977 122.401 122.916C121.906 123.855 121.296 124.719 120.573 125.506C119.862 126.28 119.056 126.947 118.154 127.505C117.266 128.064 116.294 128.502 115.241 128.819C114.187 129.124 113.07 129.276 111.889 129.276C110.747 129.276 109.655 129.13 108.614 128.838C107.585 128.546 106.621 128.14 105.719 127.62C104.818 127.086 103.999 126.452 103.263 125.715C102.539 124.966 101.917 124.141 101.396 123.24C100.889 122.326 100.489 121.348 100.197 120.307C99.9175 119.266 99.7778 118.181 99.7778 117.051C99.7778 115.946 99.9111 114.867 100.178 113.813C100.444 112.747 100.825 111.744 101.32 110.805C101.828 109.865 102.438 109.002 103.148 108.215C103.859 107.428 104.653 106.749 105.529 106.177C106.417 105.606 107.376 105.162 108.404 104.844C109.433 104.527 110.518 104.368 111.661 104.368C113.501 104.368 115.177 104.654 116.688 105.225C118.211 105.796 119.506 106.615 120.573 107.682C121.652 108.735 122.483 110.018 123.067 111.528C123.664 113.026 123.962 114.702 123.962 116.556ZM115.507 117.051C115.507 116.505 115.425 115.978 115.26 115.47C115.107 114.95 114.879 114.493 114.574 114.099C114.27 113.693 113.889 113.369 113.432 113.128C112.987 112.874 112.473 112.747 111.889 112.747C111.292 112.747 110.759 112.855 110.29 113.071C109.82 113.287 109.414 113.585 109.071 113.966C108.741 114.334 108.487 114.772 108.309 115.28C108.131 115.775 108.042 116.302 108.042 116.86C108.042 117.394 108.119 117.927 108.271 118.46C108.423 118.993 108.652 119.476 108.957 119.907C109.261 120.339 109.636 120.688 110.08 120.955C110.537 121.221 111.064 121.354 111.661 121.354C112.257 121.354 112.791 121.24 113.26 121.012C113.743 120.771 114.149 120.453 114.479 120.06C114.809 119.653 115.063 119.19 115.241 118.669C115.418 118.149 115.507 117.609 115.507 117.051ZM147.614 111.643C147.614 112.633 147.525 113.534 147.347 114.347C147.182 115.146 146.916 115.883 146.547 116.556C146.179 117.229 145.703 117.851 145.119 118.422C144.535 118.993 143.831 119.539 143.005 120.06L147.538 128.134L138.968 129.81L136.036 121.697L133.674 121.773L133.332 129.695H125.143C125.207 126.801 125.264 123.919 125.314 121.05C125.378 118.181 125.448 115.299 125.524 112.404C125.549 110.944 125.575 109.497 125.6 108.062C125.625 106.628 125.676 105.181 125.752 103.721C126.641 103.391 127.517 103.118 128.38 102.902C129.244 102.686 130.107 102.521 130.97 102.407C131.846 102.28 132.729 102.197 133.617 102.159C134.519 102.108 135.439 102.083 136.378 102.083C137.826 102.083 139.222 102.286 140.568 102.692C141.926 103.086 143.126 103.683 144.167 104.482C145.208 105.282 146.04 106.279 146.662 107.472C147.296 108.666 147.614 110.056 147.614 111.643ZM139.083 112.252C139.083 111.719 139.006 111.23 138.854 110.786C138.714 110.341 138.499 109.96 138.207 109.643C137.927 109.313 137.572 109.059 137.14 108.881C136.721 108.691 136.226 108.596 135.655 108.596C135.401 108.596 135.153 108.615 134.912 108.653C134.671 108.678 134.436 108.723 134.208 108.786L133.903 115.87H134.36C134.906 115.87 135.458 115.8 136.017 115.661C136.588 115.521 137.096 115.305 137.54 115.013C137.997 114.721 138.365 114.347 138.645 113.89C138.937 113.433 139.083 112.887 139.083 112.252ZM172.96 128.362L163.515 129.581L162.372 125.277H158.03L157.078 129.581L147.366 128.629L154.945 103.264L165.533 102.73L172.96 128.362ZM161.687 119.45L160.239 112.823L158.83 119.45H161.687ZM199.258 102.692L197.887 128.515L187.909 129.429L182.577 115.604L181.739 129.695H173.169L173.855 102.692L183.376 102.235L189.965 115.946L190.27 102.997L199.258 102.692ZM223.805 126.115C223.208 126.864 222.472 127.518 221.596 128.077C220.72 128.635 219.78 129.099 218.777 129.467C217.774 129.835 216.746 130.108 215.692 130.286C214.639 130.476 213.636 130.571 212.684 130.571C210.843 130.571 209.148 130.241 207.599 129.581C206.05 128.921 204.711 128.013 203.581 126.858C202.464 125.69 201.588 124.319 200.953 122.745C200.318 121.17 200.001 119.476 200.001 117.66C200.001 116.276 200.16 114.924 200.477 113.604C200.794 112.271 201.245 111.021 201.829 109.853C202.426 108.672 203.149 107.593 204 106.615C204.851 105.625 205.815 104.774 206.895 104.063C207.974 103.353 209.154 102.8 210.437 102.407C211.719 102.013 213.09 101.816 214.55 101.816C215.096 101.816 215.68 101.842 216.302 101.893C216.924 101.931 217.54 102.007 218.149 102.121C218.771 102.223 219.374 102.369 219.958 102.559C220.542 102.75 221.075 102.984 221.558 103.264L221.024 110.538C220.313 110.271 219.577 110.094 218.815 110.005C218.066 109.903 217.33 109.853 216.606 109.853C215.591 109.853 214.639 110.011 213.75 110.329C212.874 110.633 212.106 111.078 211.446 111.662C210.798 112.246 210.284 112.957 209.903 113.794C209.522 114.632 209.332 115.578 209.332 116.632C209.332 117.292 209.421 117.933 209.599 118.555C209.776 119.165 210.043 119.71 210.398 120.193C210.767 120.663 211.217 121.043 211.75 121.335C212.296 121.627 212.925 121.773 213.636 121.773C214.118 121.773 214.613 121.71 215.121 121.583C215.642 121.456 216.086 121.24 216.454 120.936L216.53 119.45L211.96 119.374L212.188 113.661C214.08 113.598 215.972 113.547 217.863 113.509C219.755 113.458 221.659 113.395 223.576 113.318L223.805 126.115ZM243.305 102.54C243.229 103.733 243.159 104.914 243.095 106.082C243.032 107.25 242.949 108.431 242.848 109.624L234.773 110.043L234.583 112.442H240.258L239.839 118.346L234.126 118.536L233.936 121.316H238.658H242.01C241.934 122.713 241.851 124.103 241.762 125.487C241.686 126.858 241.616 128.235 241.553 129.619L225.138 130L225.747 102.54H243.305ZM196.478 172.556C196.478 173.711 196.345 174.828 196.078 175.907C195.812 176.974 195.424 177.977 194.917 178.916C194.421 179.855 193.812 180.719 193.088 181.506C192.377 182.28 191.571 182.947 190.67 183.505C189.781 184.064 188.81 184.502 187.756 184.819C186.703 185.124 185.585 185.276 184.405 185.276C183.262 185.276 182.17 185.13 181.129 184.838C180.101 184.546 179.136 184.14 178.235 183.62C177.333 183.086 176.515 182.452 175.778 181.715C175.055 180.966 174.433 180.141 173.912 179.24C173.404 178.326 173.004 177.348 172.712 176.307C172.433 175.266 172.293 174.181 172.293 173.051C172.293 171.946 172.427 170.867 172.693 169.813C172.96 168.747 173.341 167.744 173.836 166.805C174.344 165.865 174.953 165.002 175.664 164.215C176.375 163.428 177.168 162.749 178.044 162.177C178.933 161.606 179.892 161.162 180.92 160.844C181.948 160.527 183.034 160.368 184.176 160.368C186.017 160.368 187.693 160.654 189.204 161.225C190.727 161.796 192.022 162.615 193.088 163.682C194.167 164.735 194.999 166.018 195.583 167.528C196.18 169.026 196.478 170.702 196.478 172.556ZM188.023 173.051C188.023 172.505 187.94 171.978 187.775 171.47C187.623 170.95 187.395 170.493 187.09 170.099C186.785 169.693 186.404 169.369 185.947 169.128C185.503 168.874 184.989 168.747 184.405 168.747C183.808 168.747 183.275 168.855 182.805 169.071C182.335 169.287 181.929 169.585 181.586 169.966C181.256 170.334 181.002 170.772 180.825 171.28C180.647 171.775 180.558 172.302 180.558 172.86C180.558 173.394 180.634 173.927 180.787 174.46C180.939 174.993 181.167 175.476 181.472 175.907C181.777 176.339 182.151 176.688 182.596 176.955C183.053 177.221 183.58 177.354 184.176 177.354C184.773 177.354 185.306 177.24 185.776 177.012C186.258 176.771 186.665 176.453 186.995 176.06C187.325 175.653 187.579 175.19 187.756 174.669C187.934 174.149 188.023 173.609 188.023 173.051ZM223.709 158.692L222.338 184.515L212.36 185.429L207.028 171.604L206.19 185.695H197.621L198.306 158.692L207.828 158.235L214.417 171.946L214.721 158.997L223.709 158.692ZM243.305 158.54C243.229 159.733 243.159 160.914 243.095 162.082C243.032 163.25 242.949 164.431 242.848 165.624L234.773 166.043L234.583 168.442H240.258L239.839 174.346L234.126 174.536L233.936 177.316H238.658H242.01C241.934 178.713 241.851 180.103 241.762 181.487C241.686 182.858 241.616 184.235 241.553 185.619L225.138 186L225.747 158.54H243.305ZM113.812 214.54C113.736 215.733 113.667 216.914 113.603 218.082C113.54 219.25 113.457 220.431 113.355 221.624L105.281 222.043V224.442H112.289L111.908 230.346L105.243 230.536L105.281 241.81L95.6455 242L96.2549 214.54H113.812ZM125.067 215.188L122.972 241.124L114.936 241.543V215.721L125.067 215.188ZM152.298 214.692L150.927 240.515L140.949 241.429L135.617 227.604L134.779 241.695H126.209L126.895 214.692L136.417 214.235L143.005 227.946L143.31 214.997L152.298 214.692ZM177.53 240.362L168.085 241.581L166.942 237.277H162.601L161.648 241.581L151.937 240.629L159.516 215.264L170.104 214.73L177.53 240.362ZM166.257 231.45L164.81 224.823L163.4 231.45H166.257ZM203.829 214.692L202.458 240.515L192.479 241.429L187.147 227.604L186.309 241.695H177.74L178.425 214.692L187.947 214.235L194.536 227.946L194.84 214.997L203.829 214.692ZM224.071 215.226L223.005 223.262C222.637 223.16 222.269 223.09 221.9 223.052C221.532 223.014 221.164 222.995 220.796 222.995C219.856 222.995 218.961 223.122 218.111 223.376C217.26 223.617 216.505 223.992 215.845 224.5C215.197 225.007 214.677 225.642 214.283 226.404C213.902 227.166 213.712 228.061 213.712 229.089C213.712 229.749 213.813 230.32 214.017 230.803C214.232 231.285 214.531 231.685 214.912 232.002C215.292 232.32 215.743 232.555 216.264 232.707C216.784 232.859 217.355 232.936 217.978 232.936C218.447 232.936 218.936 232.885 219.444 232.783C219.952 232.682 220.453 232.548 220.948 232.383C221.443 232.218 221.926 232.028 222.396 231.812C222.865 231.596 223.297 231.374 223.69 231.146L222.929 240.096C222.434 240.35 221.894 240.578 221.31 240.781C220.739 240.972 220.148 241.143 219.539 241.295C218.93 241.435 218.32 241.543 217.711 241.619C217.102 241.695 216.518 241.733 215.959 241.733C214.347 241.733 212.842 241.435 211.446 240.838C210.049 240.242 208.837 239.423 207.809 238.382C206.78 237.341 205.968 236.116 205.371 234.707C204.787 233.285 204.495 231.755 204.495 230.117C204.495 227.946 204.806 225.902 205.428 223.985C206.05 222.056 206.964 220.367 208.17 218.92C209.376 217.473 210.868 216.33 212.646 215.492C214.436 214.654 216.492 214.235 218.815 214.235C219.691 214.235 220.586 214.305 221.5 214.445C222.427 214.584 223.284 214.845 224.071 215.226ZM243.305 214.54C243.229 215.733 243.159 216.914 243.095 218.082C243.032 219.25 242.949 220.431 242.848 221.624L234.773 222.043L234.583 224.442H240.258L239.839 230.346L234.126 230.536L233.936 233.316H238.658H242.01C241.934 234.713 241.851 236.103 241.762 237.487C241.686 238.858 241.616 240.235 241.553 241.619L225.138 242L225.747 214.54H243.305Z" fill="black"/>
</svg>
